<svg xmlns:xlink="http://www.w3.org/1999/xlink" xmlns="http://www.w3.org/2000/svg" width="435.5903015136719" height="435.5903015136719" viewBox="0 0 312.5 312.5" class="css-1j8o68f"><defs id="SvgjsDefs1001"></defs><g id="SvgjsG1007" featurekey="rootContainer" transform="matrix(6.25,0,0,6.25,0.31249597668647766,0)" fill="#111111"><path xmlns="http://www.w3.org/2000/svg" d="M24.95 0a25 25 0 1 0 25 25 25 25 0 0 0-25-25zm0 46.91a22 22 0 1 1 22-22 22 22 0 0 1-22 21.99z" fill="#111111"></path><path xmlns="http://www.w3.org/2000/svg" d="M24.95 3.65a21.3 21.3 0 1 0 21.3 21.3 21.33 21.33 0 0 0-21.3-21.3z" fill="#111111"></path></g><g id="SvgjsG1008" featurekey="symbolFeature-0" transform="matrix(1.2274791995024281,0,0,1.2274791995024281,95.01635452541848,34.738683192812665)" fill="#3EC1D3"><g xmlns="http://www.w3.org/2000/svg" fill="#3EC1D3"><path d="M97.4,62c-0.5-2.2-1.2-5-1.8-6.4c-0.1-0.3-0.2-0.6-0.4-1c-1-2.7-2.9-7.7-7.5-7.7H70.6c1.7,1.6,2.7,3.6,3.4,5.3h3.5     l0.6,12.3c0.1,1.3,1.1,2.4,2.3,2.5c1.2,0.1,2.4,0.2,3.7,0.2c1.2,0,2.4-0.1,3.7-0.2c1.3-0.1,2.3-1.3,2.3-2.6l0.2-7.9     c0.1,0.4,0.3,0.8,0.4,1.1c0.4,1,1,3.3,1.5,5.5c0.4,1.6,2.1,2.5,3.6,1.9l0.1,0C97.1,64.5,97.7,63.2,97.4,62z" fill="#3EC1D3"></path><circle cx="84.2" cy="39.1" r="6.3" fill="#3EC1D3"></circle><path d="M52.3,46.8H25c1.7,1.6,2.7,3.7,3.4,5.3h3l1.2,12.2c0,1.3,1,2.4,2.3,2.6c1.2,0.1,2.4,0.2,3.6,0.2c1.2,0,2.5-0.1,3.7-0.2     c1.3-0.1,2.3-1.3,2.3-2.6l1.1-12.2h3.2C49.5,50.5,50.6,48.4,52.3,46.8z" fill="#3EC1D3"></path><circle cx="38.6" cy="39.1" r="6.3" fill="#3EC1D3"></circle><path d="M27.3,55.6c-0.1-0.3-0.2-0.6-0.4-1c-1-2.7-2.9-7.7-7.5-7.7h-7.2c-4.7,0-6.5,5-7.5,7.7c-0.1,0.4-0.3,0.7-0.4,1     c-0.6,1.4-1.3,4.2-1.8,6.4c-0.3,1.3,0.4,2.5,1.6,3c0,0,0,0,0.1,0c1.5,0.6,3.2-0.3,3.6-1.9c0.5-2.2,1.1-4.6,1.5-5.5     c0.1-0.3,0.3-0.7,0.4-1.1l0.2,7.9c0,1.3,1,2.4,2.3,2.6c1.2,0.1,2.4,0.2,3.6,0.2c1.2,0,2.5-0.1,3.6-0.2c1.3-0.1,2.3-1.3,2.3-2.6     l0.2-7.9c0.1,0.4,0.3,0.8,0.4,1.1c0.4,1,1,3.3,1.5,5.5c0.4,1.6,2.1,2.5,3.6,1.9c0,0,0,0,0.1,0c1.2-0.5,1.9-1.8,1.6-3     C28.6,59.7,27.9,57,27.3,55.6z" fill="#3EC1D3"></path><circle cx="15.8" cy="39.1" r="6.3" fill="#3EC1D3"></circle><path d="M72.9,55.6c-0.1-0.3-0.2-0.6-0.4-1c-1-2.7-2.9-7.7-7.5-7.7h-0.2H58h-0.2c-4.7,0-6.5,5-7.5,7.7c-0.1,0.4-0.3,0.7-0.4,1     c-0.6,1.4-1.3,4.2-1.8,6.4c-0.3,1.3,0.4,2.5,1.6,3c0,0,0,0,0.1,0c1.5,0.6,3.2-0.3,3.6-1.9c0.5-2.2,1.1-4.6,1.5-5.5     c0.1-0.3,0.3-0.7,0.4-1.1l0.2,7.9c0,1.3,1,2.4,2.3,2.6c1.2,0.1,2.4,0.2,3.6,0.2c1.2,0,2.5-0.1,3.6-0.2c1.3-0.1,2.3-1.3,2.3-2.6     l0.2-7.9c0.1,0.4,0.3,0.8,0.4,1.1c0.4,1,1,3.3,1.5,5.5c0.4,1.6,2.1,2.5,3.6,1.9c0,0,0,0,0.1,0c1.2-0.5,1.9-1.8,1.6-3     C74.2,59.7,73.5,57,72.9,55.6z" fill="#3EC1D3"></path><circle cx="61.4" cy="39.1" r="6.3" fill="#3EC1D3"></circle></g></g><g id="SvgjsG1009" featurekey="nameFeature-0" transform="matrix(1.611928308839128,0,0,1.611928308839128,56.00000038431366,125.88071691160872)" fill="#3EC1D3"><path d="M13.28 40 l-0.04 -13.96 l-10.96 0 l0.04 13.96 l-2.32 0 l0 -30 l2.32 0 l-0.04 13.92 l10.96 0 l0.04 -13.92 l2.36 0 l0 30 l-2.36 0 z M22.215 40 l0 -30 l14.72 0 l0 2.32 l-12.64 0 l0 11.4 l12.52 0 l0 1.84 l-12.52 0 l0 12.12 l12.92 0 l0 2.32 l-15 0 z M43.07 40 l0 -30 l2.16 0 l0 27.84 l10.2 0 l0 2.16 l-12.36 0 z M67.365 28.72 l-4.32 0 l0 11.28 l-2.32 0 l0 -30 l7.24 0 c2.64 0 4.7132 0.80668 6.22 2.42 s2.26 3.9533 2.26 7.02 c0 1.36 -0.22 2.6067 -0.66 3.74 s-1.06 2.1133 -1.86 2.94 s-1.7533 1.4667 -2.86 1.92 s-2.34 0.68 -3.7 0.68 z M67.165 12.04 l-4.12 0.000039062 l0 14.48 l3.72 0 c1.36 0 2.5067 -0.19332 3.44 -0.58 s1.6866 -0.90668 2.26 -1.56 s0.98664 -1.4133 1.24 -2.28 s0.38 -1.78 0.38 -2.74 c0 -0.98668 -0.09332 -1.9267 -0.28 -2.82 s-0.53336 -1.6733 -1.04 -2.34 s-1.2134 -1.1934 -2.12 -1.58 s-2.0667 -0.58 -3.48 -0.58 z M100.10000000000001 40 l0 -25.44 l-7.24 17.32 l-2.24 -0.04 l-7.08 -17.32 l0 25.48 l-1.96 0 l0 -30 l2.08 0 l8.12 19.52 l8.16 -19.52 l2.12 0 l0 30 l-1.96 0 z M109.07500000000002 40 l0 -30 l14.72 0 l0 2.32 l-12.64 0 l0 11.4 l12.52 0 l0 1.84 l-12.52 0 l0 12.12 l12.92 0 l0 2.32 l-15 0 z" fill="#3EC1D3"></path></g><g id="SvgjsG1010" featurekey="sloganFeature-0" transform="matrix(1.478931638254673,0,0,1.478931638254673,70,202.81244916259794)" fill="#3EC1D3"><path d="M0 20 l0 -15 l1.28 0 l0 15 l-1.28 0 z M7.16 6.1 l0 13.9 l-1.16 0 l0 -13.9 l-3.26 0 l0 -1.1 l7.68 0 l0 1.1 l-3.26 0 z M11.72 7.800000000000001 l0 -1.46 l1.6 -1.12 l0 2.58 l-1.6 0 z M18.64 20.18 c-0.65334 0 -1.2335 -0.086738 -1.7401 -0.26008 s-0.93332 -0.45 -1.28 -0.83 s-0.60332 -0.87666 -0.76998 -1.49 s-0.23666 -1.3533 -0.21 -2.22 l1.2 0 c0 0.42666 0.02 0.87 0.06 1.33 s0.14666 0.88 0.32 1.26 s0.43668 0.69 0.79002 0.93 s0.84334 0.36 1.47 0.36 c0.53334 0 0.98668 -0.08 1.36 -0.24 s0.67668 -0.37334 0.91002 -0.64 s0.39668 -0.58 0.49002 -0.94 s0.14 -0.73334 0.14 -1.12 c0 -0.45334 -0.08334 -0.85 -0.25 -1.19 s-0.38666 -0.64334 -0.66 -0.91 s-0.59334 -0.50332 -0.96 -0.70998 s-0.75 -0.39 -1.15 -0.55 c-0.64 -0.25334 -1.2 -0.50334 -1.68 -0.75 s-0.87334 -0.52332 -1.18 -0.82998 s-0.53666 -0.66332 -0.69 -1.07 s-0.23 -0.90332 -0.23 -1.49 c0 -1.3333 0.35 -2.3266 1.05 -2.98 s1.7033 -0.98 3.01 -0.98 c1.1333 0 2.03 0.33 2.69 0.99 s0.99 1.65 0.99 2.97 l0 1.1 l-1.12 0 l0 -1.2 c0 -0.41334 -0.05 -0.79668 -0.15 -1.15 s-0.25666 -0.66334 -0.47 -0.93 s-0.48334 -0.47666 -0.81 -0.63 s-0.71666 -0.23 -1.17 -0.23 c-1.0667 0 -1.83 0.28 -2.29 0.84 s-0.67 1.3133 -0.63 2.26 c0.01334 0.41334 0.09 0.76668 0.23 1.06 s0.32666 0.55 0.56 0.77 s0.51334 0.41666 0.84 0.59 s0.69 0.34668 1.09 0.52002 c0.46666 0.2 0.93 0.41334 1.39 0.64 s0.89 0.50666 1.29 0.84 c0.4 0.34666 0.73 0.75 0.99 1.21 s0.39 1.03 0.39 1.71 c0 1.32 -0.33666 2.31 -1.01 2.97 s-1.61 0.99 -2.81 0.99 z M32.32 20 l-0.86 0 l-4.14 -15 l1.06 0 l3.5 13.26 l3.58 -13.26 l1.02 0 z M37.28000000000001 20 l0 -15 l7.36 0 l0 1.16 l-6.32 0 l0 5.7 l6.26 0 l0 0.92 l-6.26 0 l0 6.06 l6.46 0 l0 1.16 l-7.5 0 z M53.22000000000001 20 l-3.3 -6.22 l-3.06 0 l0 6.22 l-0.98 0 l0 -15 l3.4 0 c0.78666 0 1.46 0.11666 2.02 0.35 s1.02 0.55 1.38 0.95 s0.62666 0.86334 0.8 1.39 s0.26 1.0767 0.26 1.65 c0 0.97334 -0.25 1.85 -0.75 2.63 s-1.1567 1.35 -1.97 1.71 l3.52 6.32 l-1.32 0 z M49.14000000000001 5.92 l-2.28 -0.000019531 l0 6.84 l2.42 0 c0.68 0 1.24 -0.10334 1.68 -0.31 s0.78334 -0.47332 1.03 -0.79998 s0.42 -0.7 0.52 -1.12 s0.15 -0.85 0.15 -1.29 c0 -0.46666 -0.08 -0.9 -0.24 -1.3 s-0.39 -0.75 -0.69 -1.05 s-0.66666 -0.53666 -1.1 -0.71 s-0.93 -0.26 -1.49 -0.26 z M59.00000000000001 13.14 l0 6.86 l-1.08 0 l0 -6.86 l-3.62 -8.14 l1.24 0 l2.9 6.94 l2.94 -6.94 l1.24 0 z M71.4 20.18 c-0.65334 0 -1.2335 -0.086738 -1.7401 -0.26008 s-0.93332 -0.45 -1.28 -0.83 s-0.60332 -0.87666 -0.76998 -1.49 s-0.23666 -1.3533 -0.21 -2.22 l1.2 0 c0 0.42666 0.02 0.87 0.06 1.33 s0.14666 0.88 0.32 1.26 s0.43668 0.69 0.79002 0.93 s0.84334 0.36 1.47 0.36 c0.53334 0 0.98668 -0.08 1.36 -0.24 s0.67668 -0.37334 0.91002 -0.64 s0.39668 -0.58 0.49002 -0.94 s0.14 -0.73334 0.14 -1.12 c0 -0.45334 -0.08334 -0.85 -0.25 -1.19 s-0.38666 -0.64334 -0.66 -0.91 s-0.59334 -0.50332 -0.96 -0.70998 s-0.75 -0.39 -1.15 -0.55 c-0.64 -0.25334 -1.2 -0.50334 -1.68 -0.75 s-0.87334 -0.52332 -1.18 -0.82998 s-0.53666 -0.66332 -0.69 -1.07 s-0.23 -0.90332 -0.23 -1.49 c0 -1.3333 0.35 -2.3266 1.05 -2.98 s1.7033 -0.98 3.01 -0.98 c1.1333 0 2.03 0.33 2.69 0.99 s0.99 1.65 0.99 2.97 l0 1.1 l-1.12 0 l0 -1.2 c0 -0.41334 -0.05 -0.79668 -0.15 -1.15 s-0.25666 -0.66334 -0.47 -0.93 s-0.48334 -0.47666 -0.81 -0.63 s-0.71666 -0.23 -1.17 -0.23 c-1.0667 0 -1.83 0.28 -2.29 0.84 s-0.67 1.3133 -0.63 2.26 c0.01334 0.41334 0.09 0.76668 0.23 1.06 s0.32666 0.55 0.56 0.77 s0.51334 0.41666 0.84 0.59 s0.69 0.34668 1.09 0.52002 c0.46666 0.2 0.93 0.41334 1.39 0.64 s0.89 0.50666 1.29 0.84 c0.4 0.34666 0.73 0.75 0.99 1.21 s0.39 1.03 0.39 1.71 c0 1.32 -0.33666 2.31 -1.01 2.97 s-1.61 0.99 -2.81 0.99 z M76.76000000000002 20 l0 -15 l1.28 0 l0 15 l-1.28 0 z M89.24000000000002 20 l0 -12.72 l-3.62 8.66 l-1.12 -0.02 l-3.54 -8.66 l0 12.74 l-0.98 0 l0 -15 l1.04 0 l4.06 9.76 l4.08 -9.76 l1.06 0 l0 15 l-0.98 0 z M95.52000000000001 14.36 l-2.16 0 l0 5.64 l-1.16 0 l0 -15 l3.62 0 c1.32 0 2.3566 0.40334 3.11 1.21 s1.13 1.9767 1.13 3.51 c0 0.68 -0.11 1.3033 -0.33 1.87 s-0.53 1.0567 -0.93 1.47 s-0.87666 0.73334 -1.43 0.96 s-1.17 0.34 -1.85 0.34 z M95.42000000000002 6.02 l-2.06 0.000019531 l0 7.24 l1.86 0 c0.68 0 1.2533 -0.09666 1.72 -0.29 s0.84332 -0.45334 1.13 -0.78 s0.49332 -0.70666 0.61998 -1.14 s0.19 -0.89 0.19 -1.37 c0 -0.49334 -0.04666 -0.96334 -0.14 -1.41 s-0.26668 -0.83666 -0.52002 -1.17 s-0.60668 -0.59668 -1.06 -0.79002 s-1.0333 -0.29 -1.74 -0.29 z M101.40000000000002 20 l0 -15 l1.08 0 l0 13.92 l5.1 0 l0 1.08 l-6.18 0 z M108.70000000000002 20 l0 -15 l7.36 0 l0 1.16 l-6.32 0 l0 5.7 l6.26 0 l0 0.92 l-6.26 0 l0 6.06 l6.46 0 l0 1.16 l-7.5 0 z" fill="#3EC1D3"></path></g></svg>